<svg width="59" height="32" viewBox="0 0 59 32" fill="none" xmlns="http://www.w3.org/2000/svg">
<g clip-path="url(#clip0_12136_267425)">
<path d="M34.5428 7.54015H32.2825V4.2765C32.2825 3.16979 31.3814 2.26933 30.2738 2.26933H16.5785C15.9548 2.26933 15.4492 1.76373 15.4492 1.14004C15.4492 0.516344 15.9548 0.0107422 16.5785 0.0107422H30.2738C32.6275 0.0107422 34.5428 1.9246 34.5428 4.2765V7.54015Z" fill="#FF0045"/>
<path d="M29.648 32.0108H7.29414C4.66147 32.0108 2.51953 29.8705 2.51953 27.2398V19.8914C2.51953 19.2672 3.02552 18.7612 3.64969 18.7612C4.27385 18.7612 4.77984 19.2672 4.77984 19.8914V27.2398C4.77984 28.6253 5.90762 29.7522 7.29414 29.7522H29.648C31.1011 29.7522 32.2836 28.5706 32.2836 27.1186V25.9893H34.5439V27.1186C34.5439 29.8158 32.3479 32.0108 29.648 32.0108Z" fill="#FF0045"/>
<path d="M25.0638 14.147L21.0784 23.567H19.2834L15.3145 14.147H17.1589L20.2385 21.6402L23.3182 14.147H25.0638Z" fill="black"/>
<path d="M27.446 23.567V9.964H29.1422V23.567H27.446Z" fill="black"/>
<path d="M33.303 9.79932C33.6323 9.79932 33.9013 9.90911 34.1099 10.1287C34.3295 10.3373 34.4393 10.6008 34.4393 10.9192C34.4393 11.2376 34.3295 11.5066 34.1099 11.7261C33.9013 11.9347 33.6323 12.039 33.303 12.039C32.9846 12.039 32.7156 11.9347 32.496 11.7261C32.2874 11.5066 32.1831 11.2376 32.1831 10.9192C32.1831 10.6008 32.2874 10.3373 32.496 10.1287C32.7156 9.90911 32.9846 9.79932 33.303 9.79932ZM32.4631 23.5835V14.147H34.1593V23.5835H32.4631Z" fill="black"/>
<path d="M39.1765 14.147V15.5798C39.418 15.1516 39.8132 14.7673 40.3622 14.427C40.9221 14.0866 41.5918 13.9164 42.3713 13.9164C43.1069 13.9164 43.7602 14.0866 44.3311 14.427C44.913 14.7673 45.3631 15.2504 45.6815 15.8762C45.9999 16.491 46.1591 17.2156 46.1591 18.05V23.567H44.4629V18.3465C44.4629 17.4023 44.2433 16.6777 43.8041 16.1726C43.3759 15.6566 42.7776 15.3986 42.009 15.3986C41.4711 15.3986 40.988 15.5523 40.5598 15.8597C40.1316 16.1562 39.7913 16.5569 39.5388 17.0619C39.2972 17.567 39.1765 18.1104 39.1765 18.6923V23.567H37.4802V14.147H39.1765Z" fill="black"/>
<path d="M53.831 28.6228C52.5574 28.6228 51.5364 28.3045 50.7679 27.6677C50.0103 27.0419 49.5437 26.2459 49.368 25.2797H51.0972C51.207 25.8287 51.487 26.2788 51.9371 26.6302C52.3982 26.9815 53.0295 27.1571 53.831 27.1571C54.6983 27.1571 55.3955 26.8827 55.9225 26.3337C56.4605 25.7957 56.7295 25.0711 56.7295 24.1599V22.0354C56.466 22.4856 56.0433 22.8698 55.4614 23.1882C54.8795 23.5066 54.1878 23.6658 53.3863 23.6658C52.508 23.6658 51.7121 23.4517 50.9984 23.0235C50.2958 22.6063 49.7413 22.0299 49.3351 21.2943C48.9289 20.5478 48.7258 19.7189 48.7258 18.8076C48.7258 17.8963 48.9289 17.0674 49.3351 16.3209C49.7413 15.5743 50.2958 14.9869 50.9984 14.5587C51.7121 14.1305 52.508 13.9164 53.3863 13.9164C54.1878 13.9164 54.8795 14.0756 55.4614 14.394C56.0433 14.7124 56.466 15.0967 56.7295 15.5468V14.147H58.4257V24.1763C58.4257 25.0327 58.2281 25.7957 57.8329 26.4655C57.4486 27.1462 56.9051 27.6732 56.2025 28.0464C55.5108 28.4307 54.7203 28.6228 53.831 28.6228ZM53.5346 22.2001C54.1604 22.2001 54.7148 22.0519 55.1979 21.7555C55.6919 21.459 56.0762 21.0528 56.3507 20.5368C56.6252 20.0208 56.7624 19.4444 56.7624 18.8076C56.7624 18.1708 56.6252 17.5944 56.3507 17.0784C56.0762 16.5624 55.6919 16.1562 55.1979 15.8597C54.7148 15.5633 54.1604 15.4151 53.5346 15.4151C52.9197 15.4151 52.3708 15.5633 51.8877 15.8597C51.4156 16.1562 51.0478 16.5624 50.7843 17.0784C50.5208 17.5944 50.3891 18.1708 50.3891 18.8076C50.3891 19.4444 50.5208 20.0208 50.7843 20.5368C51.0478 21.0528 51.4156 21.459 51.8877 21.7555C52.3708 22.0519 52.9197 22.2001 53.5346 22.2001Z" fill="black"/>
<path fill-rule="evenodd" clip-rule="evenodd" d="M25.6307 13.7705L21.3267 23.9435H19.0322L14.7461 13.7705H17.41L20.2373 20.6498L23.0646 13.7705H25.6307ZM20.2373 21.6402L17.1577 14.147H15.3132L19.2821 23.567H21.0772L25.0626 14.147H23.3169L20.2373 21.6402ZM27.0683 23.9435V9.58754H29.5175V23.9435H27.0683ZM32.2285 11.9924L32.2219 11.9854C31.9431 11.692 31.8054 11.3286 31.8054 10.9192C31.8054 10.5097 31.9434 10.1476 32.2286 9.86249C32.5208 9.57033 32.8863 9.42285 33.3018 9.42285C33.721 9.42285 34.0896 9.56578 34.375 9.8624C34.6689 10.1451 34.8146 10.5068 34.8146 10.9192C34.8146 11.3346 34.6671 11.7002 34.3749 11.9923C34.0872 12.2801 33.7182 12.4155 33.3018 12.4155C32.8923 12.4155 32.5289 12.2778 32.2355 11.9991L32.2285 11.9924ZM34.1087 10.1287C33.9001 9.90911 33.6311 9.79932 33.3018 9.79932C32.9834 9.79932 32.7144 9.90911 32.4948 10.1287C32.2862 10.3373 32.1819 10.6008 32.1819 10.9192C32.1819 11.2376 32.2862 11.5066 32.4948 11.7261C32.7144 11.9347 32.9834 12.039 33.3018 12.039C33.6311 12.039 33.9001 11.9347 34.1087 11.7261C34.3283 11.5066 34.4381 11.2376 34.4381 10.9192C34.4381 10.6008 34.3283 10.3373 34.1087 10.1287ZM32.0854 23.96V13.7705H34.5346V23.96H32.0854ZM39.5517 13.7705V14.5525C39.734 14.3945 39.9381 14.2462 40.1626 14.107L40.1654 14.1053C40.7946 13.7228 41.5348 13.54 42.3701 13.54C43.1656 13.54 43.8863 13.7246 44.5213 14.1028C45.1671 14.4809 45.6659 15.0182 46.0153 15.7045C46.3661 16.3824 46.5344 17.1683 46.5344 18.0501V23.9435H44.0852V18.3465C44.0852 17.4561 43.8779 16.8327 43.5188 16.4197L43.5159 16.4164L43.5132 16.413C43.1674 15.9964 42.6827 15.7751 42.0078 15.7751C41.5469 15.7751 41.1409 15.9051 40.7781 16.1656L40.7755 16.1674L40.7729 16.1693C40.4019 16.4261 40.1023 16.7754 39.8758 17.2273C39.6604 17.6788 39.5517 18.1655 39.5517 18.6923V23.9435H37.1025V13.7705H39.5517ZM44.3299 14.427C43.759 14.0866 43.1057 13.9165 42.3701 13.9165C41.5906 13.9165 40.9209 14.0866 40.361 14.427C40.038 14.6272 39.7683 14.8426 39.5517 15.0733C39.4002 15.2347 39.2747 15.4035 39.1752 15.5798V14.147H37.479V23.567H39.1752V18.6923C39.1752 18.1104 39.296 17.567 39.5375 17.0619C39.7901 16.5569 40.1304 16.1562 40.5586 15.8597C40.9868 15.5523 41.4698 15.3986 42.0078 15.3986C42.7764 15.3986 43.3747 15.6566 43.8029 16.1726C44.2421 16.6777 44.4616 17.4023 44.4616 18.3465V23.567H46.1579V18.0501C46.1579 17.2156 45.9987 16.491 45.6803 15.8762C45.3619 15.2504 44.9118 14.7673 44.3299 14.427ZM51.096 25.2797C51.2058 25.8287 51.4858 26.2788 51.9359 26.6302C52.397 26.9815 53.0283 27.1572 53.8298 27.1572C54.6971 27.1572 55.3943 26.8827 55.9213 26.3337C56.4593 25.7958 56.7282 25.0711 56.7282 24.1599V22.0354C56.6265 22.2093 56.501 22.3733 56.3518 22.5274C56.1146 22.7725 55.8173 22.9928 55.4602 23.1882C54.8783 23.5066 54.1866 23.6658 53.3851 23.6658C52.5068 23.6658 51.7108 23.4517 50.9972 23.0236C50.2945 22.6063 49.7401 22.0299 49.3339 21.2944C48.9276 20.5478 48.7245 19.7189 48.7245 18.8076C48.7245 17.8963 48.9276 17.0674 49.3339 16.3209C49.7401 15.5743 50.2945 14.9869 50.9972 14.5587C51.7108 14.1305 52.5068 13.9165 53.3851 13.9165C54.1866 13.9165 54.8783 14.0757 55.4602 14.394C55.8173 14.5895 56.1146 14.8097 56.3518 15.0548C56.501 15.209 56.6265 15.373 56.7282 15.5468V14.147H58.4245V24.1763C58.4245 25.0327 58.2269 25.7958 57.8316 26.4655C57.4474 27.1462 56.9039 27.6732 56.2012 28.0465C55.5096 28.4307 54.7191 28.6229 53.8298 28.6229C52.5562 28.6229 51.5352 28.3045 50.7666 27.6677C50.1098 27.1251 49.6717 26.4546 49.4523 25.6562C49.4187 25.5337 49.3902 25.4082 49.3668 25.2797H51.096ZM50.5264 27.9576C49.7007 27.2753 49.1879 26.4005 48.9964 25.3471L48.9157 24.9033H51.4046L51.4652 25.2059C51.5568 25.6639 51.7862 26.0352 52.1658 26.332C52.5403 26.6166 53.0809 26.7807 53.8298 26.7807C54.6103 26.7807 55.2039 26.5374 55.6497 26.073L55.6524 26.0702L55.6551 26.0675C56.1088 25.6138 56.3518 24.9924 56.3518 24.1599V23.04C56.142 23.2151 55.9043 23.3743 55.6409 23.5185C54.9931 23.8729 54.2367 24.0423 53.3851 24.0423C52.4428 24.0423 51.5794 23.8118 50.8041 23.3467C50.0426 22.8944 49.4418 22.2685 49.0043 21.4763L49.0032 21.4743C48.5648 20.6685 48.3481 19.7771 48.3481 18.8076C48.3481 17.8382 48.5648 16.9467 49.0032 16.1409C49.44 15.3381 50.0401 14.7011 50.8013 14.2372L50.8035 14.2359C51.5789 13.7706 52.4425 13.54 53.3851 13.54C54.2367 13.54 54.9931 13.7094 55.6409 14.0638C55.9043 14.2079 56.142 14.3672 56.3518 14.5423V13.7705H58.801V24.1763C58.801 25.0917 58.5893 25.921 58.1577 26.6536C57.7381 27.3956 57.1433 27.9716 56.3809 28.3773C55.6274 28.7951 54.7737 28.9993 53.8298 28.9993C52.4932 28.9993 51.3794 28.6643 50.5264 27.9576ZM54.9998 21.4346L55.003 21.4326C55.4375 21.1719 55.7742 20.8166 56.0171 20.36C56.2601 19.9032 56.3847 19.3884 56.3847 18.8076C56.3847 18.2268 56.2601 17.712 56.0171 17.2552C55.7742 16.7986 55.4375 16.4433 55.003 16.1826L54.9998 16.1806C54.582 15.9243 54.0971 15.7916 53.5333 15.7916C52.9826 15.7916 52.5035 15.9233 52.085 16.1796C51.6736 16.4384 51.352 16.7922 51.1184 17.2496C50.8846 17.7075 50.7643 18.2243 50.7643 18.8076C50.7643 19.3909 50.8846 19.9077 51.1184 20.3656C51.3519 20.823 51.6736 21.1768 52.085 21.4356C52.5035 21.6919 52.9826 21.8237 53.5333 21.8237C54.0971 21.8237 54.582 21.691 54.9998 21.4346ZM51.8865 21.7555C51.4144 21.459 51.0466 21.0528 50.7831 20.5368C50.5196 20.0208 50.3879 19.4444 50.3879 18.8076C50.3879 18.1708 50.5196 17.5944 50.7831 17.0784C51.0466 16.5624 51.4144 16.1562 51.8865 15.8597C52.3696 15.5633 52.9185 15.4151 53.5333 15.4151C54.1591 15.4151 54.7136 15.5633 55.1967 15.8597C55.6907 16.1562 56.075 16.5624 56.3495 17.0784C56.6239 17.5944 56.7612 18.1708 56.7612 18.8076C56.7612 19.4444 56.6239 20.0208 56.3495 20.5368C56.075 21.0528 55.6907 21.459 55.1967 21.7555C54.7136 22.0519 54.1591 22.2001 53.5333 22.2001C52.9185 22.2001 52.3696 22.0519 51.8865 21.7555ZM32.4619 23.5835H34.1581V14.147H32.4619V23.5835ZM27.4447 9.96401H29.141V23.567H27.4447V9.96401Z" fill="black"/>
<path d="M10.9873 0.564758L10.4176 3.8997C10.1216 5.63261 10.5974 7.40836 11.7202 8.7611L13.8811 11.3644L10.5461 10.7947C8.81322 10.4987 7.03747 10.9745 5.68474 12.0973L3.08144 14.2581L3.65112 10.9232C3.94714 9.1903 3.47133 7.41455 2.34851 6.06181L0.187684 3.45851L3.52262 4.02819C5.25553 4.32421 7.03129 3.8484 8.38402 2.72559L10.9873 0.564758Z" fill="#FF0045"/>
</g>
<defs>
<clipPath id="clip0_12136_267425">
<rect width="58.7294" height="32" fill="white"/>
</clipPath>
</defs>
</svg>
