<svg width="59" height="32" viewBox="0 0 59 32" fill="none" xmlns="http://www.w3.org/2000/svg">
<g clip-path="url(#clip0_4980_275183)">
<path d="M34.544 7.54015H32.2837V4.2765C32.2837 3.16979 31.3826 2.26933 30.275 2.26933H16.5797C15.956 2.26933 15.4504 1.76373 15.4504 1.14004C15.4504 0.516344 15.956 0.0107422 16.5797 0.0107422H30.275C32.6287 0.0107422 34.544 1.9246 34.544 4.2765V7.54015Z" fill="#FF0045"/>
<path d="M29.6482 32.0108H7.29438C4.66172 32.0108 2.51978 29.8705 2.51978 27.2398V19.8914C2.51978 19.2672 3.02576 18.7612 3.64993 18.7612C4.2741 18.7612 4.78008 19.2672 4.78008 19.8914V27.2398C4.78008 28.6253 5.90786 29.7522 7.29438 29.7522H29.6482C31.1014 29.7522 32.2839 28.5706 32.2839 27.1186V25.9893H34.5442V27.1186C34.5442 29.8158 32.3481 32.0108 29.6482 32.0108Z" fill="#FF0045"/>
<path d="M25.0643 14.147L21.0789 23.567H19.2839L15.3149 14.147H17.1594L20.239 21.6402L23.3186 14.147H25.0643Z" fill="black"/>
<path d="M27.4465 23.567V9.964H29.1427V23.567H27.4465Z" fill="black"/>
<path d="M33.3035 9.79932C33.6328 9.79932 33.9018 9.90911 34.1104 10.1287C34.33 10.3373 34.4398 10.6008 34.4398 10.9192C34.4398 11.2376 34.33 11.5066 34.1104 11.7261C33.9018 11.9347 33.6328 12.039 33.3035 12.039C32.9851 12.039 32.7161 11.9347 32.4965 11.7261C32.2879 11.5066 32.1836 11.2376 32.1836 10.9192C32.1836 10.6008 32.2879 10.3373 32.4965 10.1287C32.7161 9.90911 32.9851 9.79932 33.3035 9.79932ZM32.4636 23.5835V14.147H34.1598V23.5835H32.4636Z" fill="black"/>
<path d="M39.1769 14.147V15.5798C39.4185 15.1516 39.8137 14.7673 40.3627 14.427C40.9226 14.0866 41.5923 13.9164 42.3718 13.9164C43.1074 13.9164 43.7607 14.0866 44.3316 14.427C44.9135 14.7673 45.3636 15.2504 45.682 15.8762C46.0004 16.491 46.1596 17.2156 46.1596 18.05V23.567H44.4633V18.3465C44.4633 17.4023 44.2438 16.6777 43.8046 16.1726C43.3764 15.6566 42.7781 15.3986 42.0095 15.3986C41.4716 15.3986 40.9885 15.5523 40.5603 15.8597C40.1321 16.1562 39.7918 16.5569 39.5392 17.0619C39.2977 17.567 39.1769 18.1104 39.1769 18.6923V23.567H37.4807V14.147H39.1769Z" fill="black"/>
<path d="M53.8315 28.6228C52.5579 28.6228 51.5369 28.3045 50.7683 27.6677C50.0108 27.0419 49.5442 26.2459 49.3685 25.2797H51.0977C51.2075 25.8287 51.4875 26.2788 51.9376 26.6302C52.3987 26.9815 53.03 27.1571 53.8315 27.1571C54.6988 27.1571 55.396 26.8827 55.923 26.3337C56.461 25.7957 56.7299 25.0711 56.7299 24.1599V22.0354C56.4665 22.4856 56.0438 22.8698 55.4619 23.1882C54.88 23.5066 54.1883 23.6658 53.3868 23.6658C52.5085 23.6658 51.7125 23.4517 50.9989 23.0235C50.2962 22.6063 49.7418 22.0299 49.3356 21.2943C48.9294 20.5478 48.7262 19.7189 48.7262 18.8076C48.7262 17.8963 48.9294 17.0674 49.3356 16.3209C49.7418 15.5743 50.2962 14.9869 50.9989 14.5587C51.7125 14.1305 52.5085 13.9164 53.3868 13.9164C54.1883 13.9164 54.88 14.0756 55.4619 14.394C56.0438 14.7124 56.4665 15.0967 56.7299 15.5468V14.147H58.4262V24.1763C58.4262 25.0327 58.2286 25.7957 57.8333 26.4655C57.4491 27.1462 56.9056 27.6732 56.203 28.0464C55.5113 28.4307 54.7208 28.6228 53.8315 28.6228ZM53.5351 22.2001C54.1609 22.2001 54.7153 22.0519 55.1984 21.7555C55.6924 21.459 56.0767 21.0528 56.3512 20.5368C56.6256 20.0208 56.7629 19.4444 56.7629 18.8076C56.7629 18.1708 56.6256 17.5944 56.3512 17.0784C56.0767 16.5624 55.6924 16.1562 55.1984 15.8597C54.7153 15.5633 54.1609 15.4151 53.5351 15.4151C52.9202 15.4151 52.3713 15.5633 51.8882 15.8597C51.4161 16.1562 51.0483 16.5624 50.7848 17.0784C50.5213 17.5944 50.3896 18.1708 50.3896 18.8076C50.3896 19.4444 50.5213 20.0208 50.7848 20.5368C51.0483 21.0528 51.4161 21.459 51.8882 21.7555C52.3713 22.0519 52.9202 22.2001 53.5351 22.2001Z" fill="black"/>
<path fill-rule="evenodd" clip-rule="evenodd" d="M25.6324 13.7705L21.3284 23.9435H19.034L14.7478 13.7705H17.4117L20.239 20.6498L23.0663 13.7705H25.6324ZM20.239 21.6402L17.1594 14.147H15.3149L19.2839 23.567H21.0789L25.0643 14.147H23.3186L20.239 21.6402ZM27.07 23.9435V9.58754H29.5192V23.9435H27.07ZM32.2302 11.9924L32.2236 11.9854C31.9448 11.692 31.8071 11.3286 31.8071 10.9192C31.8071 10.5097 31.9451 10.1476 32.2303 9.86249C32.5225 9.57033 32.8881 9.42285 33.3035 9.42285C33.7227 9.42285 34.0913 9.56578 34.3767 9.8624C34.6706 10.1451 34.8163 10.5068 34.8163 10.9192C34.8163 11.3346 34.6688 11.7002 34.3766 11.9923C34.0889 12.2801 33.72 12.4155 33.3035 12.4155C32.894 12.4155 32.5306 12.2778 32.2372 11.9991L32.2302 11.9924ZM34.1104 10.1287C33.9018 9.90911 33.6328 9.79932 33.3035 9.79932C32.9851 9.79932 32.7161 9.90911 32.4965 10.1287C32.2879 10.3373 32.1836 10.6008 32.1836 10.9192C32.1836 11.2376 32.2879 11.5066 32.4965 11.7261C32.7161 11.9347 32.9851 12.039 33.3035 12.039C33.6328 12.039 33.9018 11.9347 34.1104 11.7261C34.33 11.5066 34.4398 11.2376 34.4398 10.9192C34.4398 10.6008 34.33 10.3373 34.1104 10.1287ZM32.0871 23.96V13.7705H34.5363V23.96H32.0871ZM39.5534 13.7705V14.5525C39.7357 14.3945 39.9398 14.2462 40.1643 14.107L40.1671 14.1053C40.7963 13.7228 41.5365 13.54 42.3718 13.54C43.1673 13.54 43.888 13.7246 44.523 14.1028C45.1688 14.4809 45.6676 15.0182 46.0171 15.7045C46.3678 16.3824 46.5361 17.1683 46.5361 18.0501V23.9435H44.0869V18.3465C44.0869 17.4561 43.8796 16.8327 43.5205 16.4197L43.5177 16.4164L43.5149 16.413C43.1692 15.9964 42.6844 15.7751 42.0095 15.7751C41.5486 15.7751 41.1426 15.9051 40.7799 16.1656L40.7772 16.1674L40.7746 16.1693C40.4036 16.4261 40.104 16.7754 39.8775 17.2273C39.6621 17.6788 39.5534 18.1655 39.5534 18.6923V23.9435H37.1042V13.7705H39.5534ZM44.3316 14.427C43.7607 14.0866 43.1074 13.9165 42.3718 13.9165C41.5923 13.9165 40.9226 14.0866 40.3627 14.427C40.0397 14.6272 39.77 14.8426 39.5534 15.0733C39.4019 15.2347 39.2764 15.4035 39.1769 15.5798V14.147H37.4807V23.567H39.1769V18.6923C39.1769 18.1104 39.2977 17.567 39.5392 17.0619C39.7918 16.5569 40.1321 16.1562 40.5603 15.8597C40.9885 15.5523 41.4716 15.3986 42.0095 15.3986C42.7781 15.3986 43.3764 15.6566 43.8046 16.1726C44.2438 16.6777 44.4633 17.4023 44.4633 18.3465V23.567H46.1596V18.0501C46.1596 17.2156 46.0004 16.491 45.682 15.8762C45.3636 15.2504 44.9135 14.7673 44.3316 14.427ZM51.0977 25.2797C51.2075 25.8287 51.4875 26.2788 51.9376 26.6302C52.3987 26.9815 53.03 27.1572 53.8315 27.1572C54.6988 27.1572 55.396 26.8827 55.923 26.3337C56.461 25.7958 56.7299 25.0711 56.7299 24.1599V22.0354C56.6282 22.2093 56.5027 22.3733 56.3535 22.5274C56.1163 22.7725 55.8191 22.9928 55.4619 23.1882C54.88 23.5066 54.1883 23.6658 53.3868 23.6658C52.5085 23.6658 51.7125 23.4517 50.9989 23.0236C50.2962 22.6063 49.7418 22.0299 49.3356 21.2944C48.9294 20.5478 48.7262 19.7189 48.7262 18.8076C48.7262 17.8963 48.9294 17.0674 49.3356 16.3209C49.7418 15.5743 50.2962 14.9869 50.9989 14.5587C51.7125 14.1305 52.5085 13.9165 53.3868 13.9165C54.1883 13.9165 54.88 14.0757 55.4619 14.394C55.8191 14.5895 56.1163 14.8097 56.3535 15.0548C56.5027 15.209 56.6282 15.373 56.7299 15.5468V14.147H58.4262V24.1763C58.4262 25.0327 58.2286 25.7958 57.8333 26.4655C57.4491 27.1462 56.9056 27.6732 56.203 28.0465C55.5113 28.4307 54.7208 28.6229 53.8315 28.6229C52.5579 28.6229 51.5369 28.3045 50.7683 27.6677C50.1115 27.1251 49.6734 26.4546 49.454 25.6562C49.4204 25.5337 49.3919 25.4082 49.3685 25.2797H51.0977ZM50.5281 27.9576C49.7024 27.2753 49.1896 26.4005 48.9981 25.3471L48.9174 24.9033H51.4063L51.4669 25.2059C51.5585 25.6639 51.7879 26.0352 52.1675 26.332C52.542 26.6166 53.0826 26.7807 53.8315 26.7807C54.612 26.7807 55.2056 26.5374 55.6514 26.073L55.6541 26.0702L55.6568 26.0675C56.1105 25.6138 56.3535 24.9924 56.3535 24.1599V23.04C56.1437 23.2151 55.906 23.3743 55.6426 23.5185C54.9948 23.8729 54.2384 24.0423 53.3868 24.0423C52.4445 24.0423 51.5811 23.8118 50.8058 23.3467C50.0443 22.8944 49.4435 22.2685 49.006 21.4763L49.0049 21.4743C48.5665 20.6685 48.3498 19.7771 48.3498 18.8076C48.3498 17.8382 48.5665 16.9467 49.0049 16.1409C49.4417 15.3381 50.0418 14.7011 50.803 14.2372L50.8052 14.2359C51.5806 13.7706 52.4442 13.54 53.3868 13.54C54.2384 13.54 54.9948 13.7094 55.6426 14.0638C55.906 14.2079 56.1437 14.3672 56.3535 14.5423V13.7705H58.8027V24.1763C58.8027 25.0917 58.591 25.921 58.1594 26.6536C57.7399 27.3956 57.145 27.9716 56.3826 28.3773C55.6292 28.7951 54.7754 28.9993 53.8315 28.9993C52.4949 28.9993 51.3811 28.6643 50.5281 27.9576ZM55.0015 21.4346L55.0047 21.4326C55.4392 21.1719 55.7759 20.8166 56.0188 20.36C56.2618 19.9032 56.3864 19.3884 56.3864 18.8076C56.3864 18.2268 56.2618 17.712 56.0188 17.2552C55.7759 16.7986 55.4392 16.4433 55.0047 16.1826L55.0015 16.1806C54.5837 15.9243 54.0988 15.7916 53.5351 15.7916C52.9843 15.7916 52.5052 15.9233 52.0868 16.1796C51.6753 16.4384 51.3537 16.7922 51.1201 17.2496C50.8863 17.7075 50.766 18.2243 50.766 18.8076C50.766 19.3909 50.8863 19.9077 51.1201 20.3656C51.3537 20.823 51.6753 21.1768 52.0867 21.4356C52.5052 21.6919 52.9843 21.8237 53.5351 21.8237C54.0988 21.8237 54.5837 21.691 55.0015 21.4346ZM51.8882 21.7555C51.4161 21.459 51.0483 21.0528 50.7848 20.5368C50.5213 20.0208 50.3896 19.4444 50.3896 18.8076C50.3896 18.1708 50.5213 17.5944 50.7848 17.0784C51.0483 16.5624 51.4161 16.1562 51.8882 15.8597C52.3713 15.5633 52.9202 15.4151 53.5351 15.4151C54.1609 15.4151 54.7153 15.5633 55.1984 15.8597C55.6924 16.1562 56.0767 16.5624 56.3512 17.0784C56.6256 17.5944 56.7629 18.1708 56.7629 18.8076C56.7629 19.4444 56.6256 20.0208 56.3512 20.5368C56.0767 21.0528 55.6924 21.459 55.1984 21.7555C54.7153 22.0519 54.1609 22.2001 53.5351 22.2001C52.9202 22.2001 52.3713 22.0519 51.8882 21.7555ZM32.4636 23.5835H34.1598V14.147H32.4636V23.5835ZM27.4465 9.96401H29.1427V23.567H27.4465V9.96401Z" fill="black"/>
<path d="M10.9878 0.564758L10.4181 3.8997C10.1221 5.63261 10.5979 7.40836 11.7207 8.7611L13.8816 11.3644L10.5466 10.7947C8.81371 10.4987 7.03796 10.9745 5.68523 12.0973L3.08193 14.2581L3.65161 10.9232C3.94763 9.1903 3.47182 7.41455 2.349 6.06181L0.188172 3.45851L3.52311 4.02819C5.25602 4.32421 7.03177 3.8484 8.38451 2.72559L10.9878 0.564758Z" fill="#FF0045"/>
</g>
<defs>
<clipPath id="clip0_4980_275183">
<rect width="58.7294" height="32" fill="white"/>
</clipPath>
</defs>
</svg>
